<svg width="113" height="113" viewBox="0 0 113 113" fill="none" xmlns="http://www.w3.org/2000/svg">
<g filter="url(#filter0_d_514_4699)">
<path d="M102.679 52.7266C102.679 27.3238 82.1113 6.75635 56.7085 6.75635C31.3057 6.75635 10.7383 27.3919 10.7383 52.7266C10.7383 75.6776 27.56 94.6786 49.5576 98.1519V66.0068H37.8437V52.7266H49.4895V42.5791C49.4895 31.0695 56.368 24.6677 66.856 24.6677C71.8957 24.6677 77.1397 25.5531 77.1397 25.5531V36.9264H71.3508C65.6301 36.9264 63.8594 40.4678 63.8594 44.0773V52.7266H76.5948L74.5517 66.0068H63.8594V98.1519C85.857 94.7467 102.679 75.6776 102.679 52.7266Z" fill="#4676ED"/>
<path d="M74.5516 66.075L76.5947 52.7948H63.8592V44.1456C63.8592 40.536 65.6299 36.9946 71.3507 36.9946H77.1395V25.6894C77.1395 25.6894 71.8955 24.804 66.8558 24.804C56.3678 24.804 49.4893 31.1377 49.4893 42.7154V52.8629H37.8435V66.1431H49.4893V98.2882C51.8048 98.6288 54.2566 98.8331 56.6402 98.8331C59.0239 98.8331 61.4756 98.6288 63.7911 98.2882V66.1431H74.5516V66.075Z" fill="white"/>
</g>
<defs>
<filter id="filter0_d_514_4699" x="0.738281" y="0.756348" width="111.94" height="112.077" filterUnits="userSpaceOnUse" color-interpolation-filters="sRGB">
<feFlood flood-opacity="0" result="BackgroundImageFix"/>
<feColorMatrix in="SourceAlpha" type="matrix" values="0 0 0 0 0 0 0 0 0 0 0 0 0 0 0 0 0 0 127 0" result="hardAlpha"/>
<feOffset dy="4"/>
<feGaussianBlur stdDeviation="5"/>
<feComposite in2="hardAlpha" operator="out"/>
<feColorMatrix type="matrix" values="0 0 0 0 0 0 0 0 0 0 0 0 0 0 0 0 0 0 0.2 0"/>
<feBlend mode="normal" in2="BackgroundImageFix" result="effect1_dropShadow_514_4699"/>
<feBlend mode="normal" in="SourceGraphic" in2="effect1_dropShadow_514_4699" result="shape"/>
</filter>
</defs>
</svg>
