<svg width="46" height="46" viewBox="0 0 46 46" fill="none" xmlns="http://www.w3.org/2000/svg">
<path d="M23.0897 45.4869C35.64 45.4869 45.8141 35.3129 45.8141 22.7625C45.8141 10.2122 35.64 0.0380859 23.0897 0.0380859C10.5393 0.0380859 0.365234 10.2122 0.365234 22.7625C0.365234 35.3129 10.5393 45.4869 23.0897 45.4869Z" fill="#DC4711"/>
<path d="M38.2397 22.7625C38.2397 20.9446 36.7584 19.4633 34.9405 19.4633C34.0315 19.4633 33.2235 19.8336 32.6512 20.4059C30.3956 18.7563 27.2646 17.7127 23.7971 17.578L25.312 10.4745L30.2609 11.5181C30.3282 12.7638 31.3382 13.7738 32.6175 13.7738C33.9305 13.7738 34.9741 12.7301 34.9741 11.4172C34.9741 10.1042 33.9305 9.06055 32.6175 9.06055C31.6749 9.06055 30.9006 9.59919 30.4966 10.3735L24.9754 9.1952C24.807 9.16153 24.6724 9.1952 24.5377 9.26253C24.4031 9.36353 24.3021 9.49821 24.2684 9.63287L22.5851 17.5443C19.0502 17.6453 15.8856 18.689 13.5963 20.3386C12.9903 19.7663 12.1824 19.4296 11.3071 19.4296C9.4891 19.4296 8.00781 20.9109 8.00781 22.7289C8.00781 24.0755 8.81579 25.2201 9.96043 25.7588C9.89309 26.0954 9.89309 26.4321 9.89309 26.7688C9.89309 31.8523 15.8183 35.9932 23.1574 35.9932C30.4966 35.9932 36.4217 31.8523 36.4217 26.7688C36.4217 26.4321 36.3881 26.0954 36.3544 25.7588C37.398 25.2875 38.2397 24.1092 38.2397 22.7625ZM15.5153 25.1528C15.5153 23.8398 16.5926 22.7962 17.8719 22.7962C19.1849 22.7962 20.2285 23.8735 20.2285 25.1528C20.2285 26.4658 19.1512 27.5094 17.8719 27.5094C16.5589 27.5094 15.5153 26.4321 15.5153 25.1528ZM28.7123 31.381C27.0963 32.9969 23.9991 33.1316 23.0901 33.1316C22.1811 33.1316 19.0839 32.9969 17.4679 31.381C17.2322 31.1453 17.2322 30.7413 17.4679 30.5057C17.7036 30.27 18.1075 30.27 18.3432 30.5057C19.3532 31.5156 21.5415 31.886 23.0901 31.886C24.6387 31.886 26.827 31.5156 27.837 30.5057C28.0726 30.27 28.4766 30.27 28.7123 30.5057C28.9479 30.775 28.9479 31.1453 28.7123 31.381ZM28.2746 27.5094C26.9616 27.5094 25.918 26.4321 25.918 25.1528C25.918 23.8398 26.9953 22.7962 28.2746 22.7962C29.5876 22.7962 30.6312 23.8735 30.6312 25.1528C30.6649 26.4321 29.5876 27.5094 28.2746 27.5094Z" fill="white"/>
</svg>
