<svg width="80" height="79" viewBox="0 0 80 79" fill="none" xmlns="http://www.w3.org/2000/svg">
<g filter="url(#filter0_d_514_4704)">
<path d="M35.5571 34.3964C33.9976 34.4521 32.438 34.6749 30.9342 35.1762C28.7621 35.9002 26.8127 37.0142 25.1418 38.5737C22.9139 40.5787 21.4101 43.0851 20.6304 45.9256C20.3519 46.9281 20.1848 47.9864 20.0734 49.0446C20.0177 49.6573 20.0177 50.3256 20.0734 50.9383C20.1848 52.7206 20.519 54.4472 21.1873 56.0624C21.9671 57.9004 22.9696 59.5713 24.362 61.0194C24.362 61.0751 24.4177 61.0751 24.4177 61.1308C24.0836 61.0194 23.8608 60.7966 23.5823 60.5738C21.0202 58.5687 19.238 56.0067 18.2354 52.832C17.9012 51.718 17.6784 50.6598 17.5671 49.4902C17.5114 48.6547 17.4557 47.8193 17.5114 47.0395C17.6227 45.1458 18.0683 43.3079 18.8481 41.5813C19.6835 39.799 20.7975 38.1838 22.1899 36.7914C23.8608 35.1762 25.7545 33.9508 27.9266 33.1711C29.319 32.6698 30.7115 32.3913 32.1596 32.2799C33.2178 32.2242 34.276 32.2242 35.2786 32.3356C35.4457 32.3356 35.5014 32.3913 35.5014 32.5584C35.5571 33.2268 35.5571 33.7837 35.5571 34.3964Z" fill="#6ABAC5"/>
<path d="M54.718 23.9812C53.9382 23.5356 53.2698 22.9229 52.6015 22.3103C50.9306 20.5837 49.8167 18.5229 49.3711 16.1279V16.0722C50.0951 16.0165 50.8192 16.0722 51.5433 16.0722C51.6547 16.0722 51.7104 16.1279 51.7104 16.2393C51.7104 16.295 51.7104 16.3507 51.7104 16.4064C51.6547 18.4672 52.2673 20.3052 53.2699 22.0875C53.604 22.7001 54.0496 23.3128 54.4952 23.8698C54.6623 23.8698 54.718 23.8698 54.718 23.9812Z" fill="#CB1C54"/>
<path d="M61.2331 27.7127C59.1723 27.2671 57.3343 26.3203 55.7191 24.9279C55.4963 24.7051 55.2179 24.538 55.0508 24.2595C55.1065 24.2595 55.1622 24.3152 55.2179 24.3152C56.4989 25.0393 57.8356 25.4849 59.2837 25.7633C59.8407 25.8747 60.3976 25.9304 60.9546 25.9304C61.1774 25.9304 61.1774 25.9304 61.1774 26.1532C61.2331 26.6545 61.2331 27.2114 61.2331 27.7127Z" fill="#6ABAC5"/>
</g>
<path d="M40 79C62.0914 79 80 61.3152 80 39.5C80 17.6848 62.0914 0 40 0C17.9086 0 0 17.6848 0 39.5C0 61.3152 17.9086 79 40 79Z" fill="#010201"/>
<path d="M30.0425 54.5585C30.0982 54.6142 30.1539 54.6142 30.1539 54.6699C30.5438 54.9484 30.878 55.394 31.2679 55.7282C32.4932 56.7307 33.8856 57.2877 35.5008 57.3434C39.2882 57.5661 42.5743 54.7256 43.0198 50.994C43.0198 50.8269 43.0198 50.6041 43.0198 50.437C43.0198 39.1863 43.0198 27.9356 43.0198 16.6848C43.0198 15.9051 43.0198 15.9051 43.7996 15.9051C45.5262 15.9051 47.1971 15.9051 48.9237 15.9051C49.0908 15.9051 49.2579 15.8494 49.4249 15.9608C49.4249 15.9608 49.425 15.9608 49.4806 15.9608C49.5363 16.0722 49.592 16.1279 49.592 16.2393C50.2604 19.2469 51.8199 21.6975 54.3262 23.5355C54.4933 23.6469 54.6047 23.814 54.7718 23.9254C54.8832 24.0368 54.9946 24.0925 55.106 24.2039C55.4959 24.4267 55.7744 24.8166 56.1642 25.095C57.5567 26.2647 59.1162 27.0444 60.8428 27.49C61.0098 27.5457 61.1769 27.5457 61.2883 27.6571C61.2883 27.6571 61.2883 27.6571 61.344 27.6571C61.4554 27.7685 61.4554 27.8799 61.4554 28.0469C61.4554 30.052 61.4554 32.0014 61.4554 34.0065C61.4554 34.4521 61.3997 34.5078 60.9541 34.5078C59.506 34.5078 58.0579 34.3407 56.6655 34.0065C54.2149 33.4495 51.987 32.447 49.9262 31.1103C49.8148 31.0546 49.7034 30.8875 49.592 30.9432C49.4249 30.9989 49.5363 31.2217 49.5363 31.3331C49.5363 36.9027 49.5363 42.4724 49.5363 48.0977C49.5363 51.9965 48.2553 55.5054 45.6933 58.4573C42.9641 61.632 39.511 63.47 35.3894 63.9712C32.2147 64.3611 29.1514 63.8042 26.3109 62.3561C25.8653 62.1333 25.4197 61.8548 24.9741 61.5206C24.8628 61.4092 24.6957 61.2978 24.5843 61.1864C23.5817 60.351 22.9134 59.2927 22.245 58.2345C21.2425 56.5636 20.6298 54.7813 20.2956 52.8319C20.1285 51.718 20.0171 50.6041 20.0728 49.5458C20.2956 45.9813 21.4653 42.8065 23.7488 40.0217C25.6982 37.6825 28.0931 36.0673 30.9337 35.1204C32.1033 34.7305 33.3286 34.4521 34.6097 34.3964C34.8324 34.3964 35.0552 34.3407 35.3337 34.3407C35.4451 34.3407 35.5565 34.3407 35.6679 34.3964C35.6679 34.3964 35.6679 34.3964 35.7236 34.3964C35.7793 34.5078 35.7793 34.6191 35.7793 34.7305C35.7793 36.7356 35.7793 38.7407 35.7793 40.7458C35.7793 40.8015 35.7793 40.9129 35.7793 40.9686C35.7793 41.1914 35.6679 41.247 35.5008 41.1913C34.9438 41.0243 34.3869 40.9686 33.8299 40.9129C32.9388 40.8572 32.1033 40.9686 31.2679 41.3027C28.483 42.3053 26.8121 44.3104 26.4779 47.2066C26.1438 50.1028 27.2577 52.3864 29.6527 54.0573C29.6527 54.2244 29.8754 54.3914 30.0425 54.5585Z" fill="white"/>
<path d="M24.8633 61.5205C24.9747 61.4648 25.0304 61.5762 25.0861 61.6319C26.8684 62.7458 28.8177 63.4699 30.8785 63.8041C31.9367 63.9712 32.995 64.0269 34.0532 63.9712C37.6178 63.8041 40.7368 62.6344 43.5216 60.3509C46.1394 58.1787 47.9217 55.3939 48.8128 52.1078C49.0913 51.0496 49.2584 49.9913 49.3141 48.9331C49.3698 48.3204 49.3698 47.7078 49.3698 47.0951C49.3698 41.7482 49.3698 36.457 49.3698 31.1102C49.3698 30.9988 49.3698 30.8874 49.3698 30.7203C49.4812 30.6646 49.5926 30.776 49.6483 30.8317C51.542 32.1127 53.6027 33.1152 55.8306 33.6722C57.0559 34.0064 58.2812 34.2292 59.5623 34.3406C60.0635 34.3963 60.6205 34.3963 61.1218 34.3963C61.3446 34.3963 61.3446 34.3963 61.3446 34.1735C61.3446 33.895 61.3446 33.6722 61.3446 33.3937C61.3446 31.6114 61.3446 29.7735 61.3446 27.9912C61.3446 27.8798 61.3446 27.7684 61.3446 27.657C61.8458 27.7127 62.2914 27.8241 62.737 27.8241C63.0154 27.8241 63.3496 27.8798 63.6281 27.8798C63.7952 27.8798 63.8509 27.9355 63.7952 28.0468C63.7952 28.1025 63.7952 28.1583 63.7952 28.2139C63.7952 30.8317 63.7952 33.3937 63.7952 36.0115C63.7952 36.0672 63.7952 36.1229 63.7952 36.1786C63.7952 36.4013 63.7952 36.4013 63.5724 36.4013C62.737 36.4013 61.9572 36.3456 61.1218 36.2343C59.4509 36.0115 57.8914 35.6216 56.3319 35.0089C54.828 34.452 53.4356 33.6722 52.1546 32.7811C52.0989 32.7254 51.9875 32.6697 51.8761 32.614C51.8761 32.7811 51.8761 32.8925 51.8761 33.0039C51.8761 38.6849 51.8761 44.366 51.8761 50.047C51.8761 53.0546 51.0964 55.8952 49.4812 58.4572C47.5318 61.5762 44.8027 63.7484 41.3495 64.9737C39.233 65.7535 37.1165 66.0319 34.8887 65.8649C31.157 65.5864 27.8709 64.1383 25.1418 61.6319C24.9747 61.6876 24.919 61.6319 24.8633 61.5205Z" fill="#CB1C54"/>
<path d="M49.3696 16.0165C49.2582 16.0165 49.1468 16.0165 49.0354 16.0165C47.1975 16.0165 45.3595 16.0165 43.5215 16.0165C43.0759 16.0165 43.0759 16.0165 43.0759 16.4063C43.0759 27.6014 43.0759 38.7964 43.0759 49.9914C43.0759 50.7711 43.0202 51.5509 42.7974 52.2749C41.962 54.8927 40.1797 56.6193 37.5063 57.232C34.61 57.9003 32.1594 57.0092 30.21 54.7813C30.1543 54.7256 30.1543 54.6699 30.1543 54.6699C30.7113 54.8927 31.2682 55.1155 31.8809 55.2269C33.7746 55.6167 35.5012 55.3383 37.1721 54.28C39.0658 53.1104 40.1797 51.4395 40.5696 49.2673C40.6253 48.8775 40.681 48.4319 40.681 48.042C40.681 36.847 40.681 25.652 40.681 14.4013C40.681 13.9 40.6253 13.9557 41.1265 13.9557C43.6886 13.9557 46.3063 13.9557 48.8684 13.9557C48.9241 13.9557 48.9797 13.9557 49.0354 13.9557C49.3139 13.9557 49.3139 13.9557 49.3139 14.2342C49.2582 14.7911 49.2582 15.4038 49.3696 16.0165Z" fill="#6ABAC5"/>
<path d="M30.0427 54.5586C29.43 54.2801 28.873 53.8346 28.3718 53.389C27.0908 52.1637 26.3667 50.7156 26.1996 48.989C25.8097 45.3687 28.0933 42.2497 31.268 41.2471C32.6047 40.8573 33.9971 40.8016 35.3338 41.1914C35.3895 41.1914 35.501 41.2471 35.5566 41.2471C35.6123 41.1357 35.5566 41.0243 35.5566 40.913C35.5566 38.8522 35.5566 36.8471 35.5566 34.7863C35.5566 34.6749 35.5566 34.5635 35.5566 34.4521C36.3364 34.3965 37.1161 34.4522 37.8959 34.5635C38.0073 34.5635 38.063 34.6192 38.063 34.7306C38.063 34.7863 38.063 34.842 38.063 34.8977C38.063 37.5712 38.063 40.3003 38.063 42.9737C38.063 43.0851 38.063 43.1965 38.0073 43.3079C37.6731 43.2522 37.2832 43.1408 36.9491 43.0851C34.8883 42.8066 32.9946 43.3079 31.3237 44.5889C29.8756 45.7029 28.9844 47.2067 28.706 49.0447C28.3718 50.994 28.7617 52.7763 29.8756 54.3915C29.987 54.3915 29.987 54.4472 30.0427 54.5586Z" fill="#CB1C54"/>
<defs>
<filter id="filter0_d_514_4704" x="7.48828" y="10.0475" width="63.7449" height="65.0833" filterUnits="userSpaceOnUse" color-interpolation-filters="sRGB">
<feFlood flood-opacity="0" result="BackgroundImageFix"/>
<feColorMatrix in="SourceAlpha" type="matrix" values="0 0 0 0 0 0 0 0 0 0 0 0 0 0 0 0 0 0 127 0" result="hardAlpha"/>
<feOffset dy="4"/>
<feGaussianBlur stdDeviation="5"/>
<feComposite in2="hardAlpha" operator="out"/>
<feColorMatrix type="matrix" values="0 0 0 0 0 0 0 0 0 0 0 0 0 0 0 0 0 0 0.2 0"/>
<feBlend mode="normal" in2="BackgroundImageFix" result="effect1_dropShadow_514_4704"/>
<feBlend mode="normal" in="SourceGraphic" in2="effect1_dropShadow_514_4704" result="shape"/>
</filter>
</defs>
</svg>
