<svg width="50" height="50" viewBox="0 0 50 50" fill="none" xmlns="http://www.w3.org/2000/svg">
<path d="M50 25C50 38.8125 38.8125 50 25 50C11.1875 50 0 38.8125 0 25C0 11.1875 11.1875 0 25 0C38.8125 0 50 11.1875 50 25Z" fill="#75B3FF"/>
<path d="M39.842 16.3417C38.8707 16.7609 37.8508 17.0539 36.8067 17.2137C37.2994 17.134 38.009 16.242 38.2849 15.8783C38.7271 15.3276 39.0615 14.6968 39.2704 14.0196C39.2951 13.9698 39.3148 13.9001 39.2704 13.8602C39.2451 13.8478 39.2173 13.8414 39.1891 13.8414C39.161 13.8414 39.1332 13.8478 39.1078 13.8602C37.9708 14.4735 36.7624 14.9405 35.5107 15.2504C35.4679 15.2651 35.4217 15.2668 35.378 15.2553C35.3342 15.2438 35.2947 15.2196 35.2644 15.1856C35.1668 15.0704 35.0614 14.9622 34.949 14.8618C34.4297 14.4076 33.8405 14.0423 33.2047 13.7805C32.3583 13.4335 31.4452 13.2853 30.5339 13.347C29.648 13.409 28.7841 13.6549 27.9963 14.0695C27.2096 14.4883 26.5141 15.0627 25.9513 15.7587C25.3695 16.4893 24.9524 17.3396 24.7293 18.2501C24.5405 19.108 24.5187 19.9949 24.6652 20.8612C24.6652 21.0057 24.6652 21.0256 24.5421 21.0057C19.6145 20.2632 15.505 18.4744 12.1838 14.6425C12.0409 14.4781 11.9621 14.4781 11.8438 14.6425C10.3656 16.8499 11.0948 20.3878 12.9082 22.1168C13.1546 22.3461 13.4009 22.5802 13.6719 22.7945C12.8405 22.7299 12.03 22.4996 11.287 22.1168C11.1392 22.0222 11.0702 22.077 11.0554 22.2414C11.0593 22.4982 11.0906 22.7538 11.149 23.0038C11.2954 24.1286 11.7343 25.1939 12.4207 26.0912C13.1072 26.9884 14.0167 27.6855 15.0566 28.1113C15.3094 28.2225 15.5739 28.3044 15.845 28.3554C15.0763 28.5145 14.2864 28.5398 13.5093 28.4302C13.3369 28.3953 13.2728 28.485 13.3369 28.6494C14.3667 31.4847 16.589 32.3318 18.2644 32.8101C18.4861 32.85 18.7079 32.85 18.9296 32.9048C18.9296 32.9048 18.905 32.9048 18.8902 32.9447C18.3383 33.7967 16.4264 34.4395 15.5346 34.7435C13.9028 35.3312 12.1649 35.5555 10.4395 35.4012C10.1635 35.3614 10.1044 35.3664 10.0305 35.4012C9.95658 35.4361 10.0305 35.5158 10.1093 35.5856C10.4592 35.8198 10.814 36.0241 11.1737 36.2234C12.256 36.8067 13.3976 37.2694 14.5786 37.6037C20.7035 39.3128 27.602 38.0571 32.1994 33.438C35.8113 29.8104 37.0777 24.8026 37.0777 19.7948C37.0777 19.6005 37.3043 19.4909 37.4423 19.3862C38.3581 18.6686 39.1649 17.8191 39.8371 16.8649C39.9471 16.7231 40.0047 16.5468 39.9997 16.3666V16.3417C39.9652 16.2619 39.9603 16.2869 39.842 16.3417Z" fill="white"/>
</svg>
