<svg width="20" height="20" viewBox="0 0 20 20" fill="none" xmlns="http://www.w3.org/2000/svg">
<path d="M18.375 0C18.4583 0 18.5416 7.45058e-09 18.625 0.0416667C18.6666 0.0416667 18.7083 0.0833333 18.75 0.0833333C18.7916 0.0833333 18.8333 0.125 18.875 0.125C18.9166 0.125 18.9583 0.166667 19 0.208333C19 0.166667 19.0416 0.208333 19.0833 0.208333C19.2083 0.291667 19.3333 0.416667 19.4166 0.541667C19.4166 0.583333 19.4583 0.625 19.4583 0.666667C19.5 0.708333 19.5 0.708333 19.5416 0.791667C19.5416 0.833333 19.5833 0.875 19.5833 0.916667C19.5833 0.958333 19.625 1 19.625 1.04167C19.625 1.125 19.6666 1.20833 19.6666 1.29167V7.875C19.6666 8.58333 19.125 9.125 18.4166 9.125C17.7083 9.125 17.1666 8.58333 17.1666 7.875V4.29167L13.2916 8.16667C12.7916 8.66667 12 8.66667 11.5416 8.16667C11.2916 7.91667 11.1666 7.58333 11.1666 7.29167C11.1666 7 11.2916 6.66667 11.5416 6.41667L15.375 2.5H11.7916C11.0833 2.5 10.5416 1.95833 10.5416 1.25C10.5416 0.541667 11.0833 0 11.7916 0H18.375Z" fill="#A2ABB3"/>
<path d="M8.16667 13.2093L4.29167 17.0843H7.875C8.58333 17.0843 9.125 17.626 9.125 18.3343C9.125 19.0426 8.58333 19.5843 7.875 19.5843H1.29167C1.20833 19.5843 1.125 19.5843 1.04167 19.5426C1 19.5426 0.958333 19.501 0.916666 19.501C0.874999 19.501 0.833334 19.4593 0.791667 19.4593C0.75 19.4593 0.708334 19.4176 0.666667 19.376C0.625 19.376 0.625 19.3343 0.583333 19.3343C0.458333 19.251 0.333333 19.126 0.25 19.001C0.25 18.9593 0.208334 18.9593 0.208334 18.9176C0.166667 18.876 0.166668 18.8343 0.125001 18.7926C0.125001 18.751 0.083333 18.7093 0.083333 18.6676C0.083333 18.626 0.041667 18.5843 0.041667 18.5426C0.041667 18.4593 9.53674e-07 18.376 9.53674e-07 18.2926V11.751C9.53674e-07 11.0426 0.541668 10.501 1.25 10.501C1.95833 10.501 2.5 11.0426 2.5 11.751V15.3343L6.41667 11.4593C6.91667 10.9593 7.70833 10.9593 8.16667 11.4593C8.66667 11.9593 8.66667 12.751 8.16667 13.2093Z" fill="#A2ABB3"/>
</svg>
