<svg width="33" height="33" viewBox="0 0 33 33" fill="none" xmlns="http://www.w3.org/2000/svg">
<path fill-rule="evenodd" clip-rule="evenodd" d="M8.25 11C8.25 10.2406 8.86562 9.625 9.625 9.625H23.375C24.1344 9.625 24.75 10.2406 24.75 11C24.75 11.7594 24.1344 12.375 23.375 12.375H9.625C8.86562 12.375 8.25 11.7594 8.25 11ZM11 16.5C11 15.7406 11.6156 15.125 12.375 15.125H20.625C21.3844 15.125 22 15.7406 22 16.5C22 17.2594 21.3844 17.875 20.625 17.875H12.375C11.6156 17.875 11 17.2594 11 16.5ZM13.75 22C13.75 21.2406 14.3656 20.625 15.125 20.625H17.875C18.6344 20.625 19.25 21.2406 19.25 22C19.25 22.7594 18.6344 23.375 17.875 23.375H15.125C14.3656 23.375 13.75 22.7594 13.75 22Z" fill="white"/>
</svg>
