<svg width="66" height="66" viewBox="0 0 66 66" fill="none" xmlns="http://www.w3.org/2000/svg">
<g clip-path="url(#clip0_1050_22546)">
<path d="M8.91251 16.7691C10.6358 15.5646 13.2337 15.7956 14.781 17.0735L13.0063 14.494C11.5782 12.4571 12.0897 10.2535 14.1283 8.82346C16.167 7.39896 21.9438 11.2288 21.9438 11.2288C20.5028 9.1718 20.7723 6.5648 22.8293 5.12196C24.8863 3.68463 27.7243 4.18146 29.1653 6.24213L48.2687 33.2288L45.834 56.833L25.5152 49.4226L7.79234 23.1455C6.33851 21.0756 6.84084 18.2211 8.91251 16.7691V16.7691Z" fill="#EF9645"/>
<path d="M4.94403 31.7828C4.94403 31.7828 2.86869 28.7578 5.89553 26.6843C8.91869 24.6108 10.9922 27.634 10.9922 27.634L20.619 41.6737C20.9509 41.12 21.3139 40.5736 21.719 40.0346L8.3577 20.5518C8.3577 20.5518 6.2842 17.5286 9.3092 15.4551C12.3324 13.3816 14.4059 16.4048 14.4059 16.4048L26.9734 34.7326C27.4409 34.3513 27.9194 33.9681 28.4125 33.5923L13.843 12.3421C13.843 12.3421 11.7695 9.31898 14.7945 7.24548C17.8177 5.17198 19.8912 8.19515 19.8912 8.19515L34.4607 29.4416C34.996 29.1135 35.5259 28.8293 36.0575 28.5286L22.4395 8.66998C22.4395 8.66998 20.366 5.64681 23.3892 3.57331C26.4124 1.49981 28.4859 4.52298 28.4859 4.52298L42.8849 25.522L45.0739 28.7156C36.0025 34.938 35.139 46.6438 40.3219 54.2027C41.3577 55.7152 42.8702 54.6793 42.8702 54.6793C36.6497 45.6062 38.549 35.411 47.6222 29.1905L44.9474 15.8035C44.9474 15.8035 43.9482 12.2761 47.4737 11.2751C51.001 10.276 52.002 13.8033 52.002 13.8033L55.0912 22.9773C56.3159 26.6146 57.6194 30.2391 59.3445 33.6675C64.2157 43.3475 61.3062 55.3778 52.1212 61.679C42.102 68.5485 28.4052 65.9947 21.5339 55.9773L4.94403 31.7828Z" fill="#FFDC5D"/>
<path d="M21.9963 58.744C14.6629 58.744 7.2526 51.3337 7.2526 44.0003C7.2526 42.9865 6.5101 42.167 5.49627 42.167C4.48244 42.167 3.58594 42.9865 3.58594 44.0003C3.58594 55.0003 10.9963 62.4107 21.9963 62.4107C23.0101 62.4107 23.8296 61.5142 23.8296 60.5003C23.8296 59.4865 23.0101 58.744 21.9963 58.744Z" fill="#5DADEC"/>
<path d="M12.8333 62.3337C7.33333 62.3337 3.66667 58.667 3.66667 53.167C3.66667 52.1532 2.84717 51.3337 1.83333 51.3337C0.8195 51.3337 0 52.1532 0 53.167C0 60.5003 5.5 66.0003 12.8333 66.0003C13.8472 66.0003 14.6667 65.1808 14.6667 64.167C14.6667 63.1532 13.8472 62.3337 12.8333 62.3337ZM44 3.66699C42.988 3.66699 42.1667 4.48833 42.1667 5.50033C42.1667 6.51233 42.988 7.33366 44 7.33366C51.3333 7.33366 58.6667 13.9135 58.6667 22.0003C58.6667 23.0123 59.488 23.8337 60.5 23.8337C61.512 23.8337 62.3333 23.0123 62.3333 22.0003C62.3333 11.8913 55 3.66699 44 3.66699Z" fill="#5DADEC"/>
<path d="M53.1615 0.0771484C52.1495 0.0771484 51.3281 0.821482 51.3281 1.83348C51.3281 2.84548 52.1495 3.74382 53.1615 3.74382C58.6615 3.74382 62.2511 7.82298 62.2511 12.8335C62.2511 13.8455 63.1476 14.6668 64.1615 14.6668C65.1753 14.6668 65.9178 13.8455 65.9178 12.8335C65.9178 5.79898 60.4948 0.0771484 53.1615 0.0771484V0.0771484Z" fill="#5DADEC"/>
</g>
<defs>
<clipPath id="clip0_1050_22546">
<rect width="66" height="66" fill="white"/>
</clipPath>
</defs>
</svg>
