<svg width="20" height="21" viewBox="0 0 20 21" fill="none" xmlns="http://www.w3.org/2000/svg">
<g clip-path="url(#clip0_540_857)">
<path d="M10 0.5C4.47826 0.5 0 4.97826 0 10.5C0 16.0217 4.47826 20.5 10 20.5C15.5217 20.5 20 16.0217 20 10.5C20 4.97826 15.5217 0.5 10 0.5ZM10.8043 18.7174C10.7609 18.7174 10.7174 18.7174 10.6522 18.7391V14.0217C11.7826 14 12.8043 13.9783 13.7391 13.913C12.913 16.4565 11.3696 18.1522 10.8043 18.7174ZM9.19565 18.7174C8.6087 18.1304 7.08696 16.4348 6.26087 13.913C7.17391 13.9783 8.21739 14.0217 9.34783 14.0217V18.7391C9.30435 18.7391 9.26087 18.7174 9.19565 18.7174ZM1.73913 10.5C1.73913 9.95652 1.80435 9.41304 1.8913 8.8913C2.36957 8.80435 3.28261 8.67391 4.56522 8.54348C4.45652 9.17391 4.3913 9.82609 4.3913 10.5217C4.3913 11.2174 4.45652 11.8696 4.54348 12.4783C3.28261 12.3478 2.34783 12.2174 1.86957 12.1304C1.80435 11.587 1.73913 11.0435 1.73913 10.5ZM5.71739 10.5C5.71739 9.76087 5.80435 9.06522 5.93478 8.41304C6.93478 8.34783 8.06522 8.28261 9.34783 8.28261V12.7174C8.08696 12.6957 6.93478 12.6522 5.91304 12.5652C5.80435 11.9348 5.71739 11.2391 5.71739 10.5ZM10.7826 2.28261C11.3696 2.86957 12.8696 4.6087 13.7174 7.08696C12.8043 7.02174 11.7826 6.97826 10.6522 6.97826V2.26087C10.6957 2.26087 10.7391 2.28261 10.7826 2.28261ZM9.34783 2.26087V6.97826C8.21739 7 7.19565 7.02174 6.28261 7.08696C7.1087 4.6087 8.63043 2.86957 9.19565 2.28261C9.26087 2.28261 9.30435 2.26087 9.34783 2.26087ZM10.6522 12.7174V8.28261C11.913 8.30435 13.0652 8.34783 14.0652 8.41304C14.1957 9.06522 14.2826 9.76087 14.2826 10.5C14.2826 11.2391 14.2174 11.9348 14.087 12.587C13.087 12.6522 11.9348 12.6957 10.6522 12.7174ZM15.413 8.54348C16.6957 8.67391 17.6087 8.80435 18.087 8.8913C18.1957 9.41304 18.2609 9.95652 18.2609 10.5C18.2609 11.0435 18.1957 11.587 18.1087 12.1087C17.6304 12.1957 16.7174 12.3261 15.4348 12.4565C15.5435 11.8261 15.587 11.1739 15.587 10.4783C15.587 9.82609 15.5217 9.15217 15.413 8.54348ZM17.6957 7.5C17.087 7.41304 16.2174 7.30435 15.1087 7.19565C14.587 5.32609 13.6739 3.82609 12.913 2.76087C15.1087 3.58696 16.8478 5.32609 17.6957 7.5ZM7.08696 2.76087C6.30435 3.80435 5.41304 5.30435 4.8913 7.17391C3.80435 7.26087 2.93478 7.3913 2.30435 7.47826C3.15217 5.32609 4.91304 3.58696 7.08696 2.76087ZM2.30435 13.5C2.91304 13.587 3.78261 13.6957 4.86957 13.8043C5.3913 15.6739 6.26087 17.1739 7.04348 18.2174C4.86957 17.3696 3.15217 15.6522 2.30435 13.5ZM12.9565 18.2174C13.7391 17.1739 14.6087 15.6957 15.1304 13.8261C16.2174 13.7391 17.087 13.6087 17.6957 13.5217C16.8478 15.6522 15.1304 17.3696 12.9565 18.2174Z" fill="white"/>
</g>
<defs>
<clipPath id="clip0_540_857">
<rect width="20" height="20" fill="white" transform="translate(0 0.5)"/>
</clipPath>
</defs>
</svg>
