<svg width="20" height="21" viewBox="0 0 20 21" fill="none" xmlns="http://www.w3.org/2000/svg">
<path d="M14.976 12.3449L13.9164 13.4724L13.6901 13.2315C13.3752 12.8966 12.847 12.8808 12.5125 13.1953C12.1773 13.5102 12.161 14.0375 12.476 14.3733L13.3093 15.2599C13.4664 15.4272 13.686 15.5224 13.9164 15.5224C14.1467 15.5224 14.3664 15.4271 14.5235 15.2599L16.1901 13.4867C16.505 13.151 16.4888 12.6237 16.1535 12.3087C15.8198 11.9938 15.2909 12.0096 14.976 12.3449Z" fill="white"/>
<path d="M9.23388 18.7947C9.23589 18.7949 9.23797 18.7948 9.23997 18.795C9.24422 18.7954 9.2483 18.7963 9.25255 18.7968C9.27697 18.7988 9.30222 18.8 9.32664 18.8C9.32772 18.8 9.32864 18.7996 9.32972 18.7996C9.55347 18.8208 9.77764 18.8333 10.0013 18.8333C10.2568 18.8333 10.5132 18.8236 10.7525 18.7963C11.1017 18.7642 11.4261 18.7083 11.7378 18.6418L11.7755 18.6779C12.4355 19.3265 13.303 19.6508 14.1696 19.6508C15.0347 19.6508 15.899 19.3278 16.5557 18.6824L16.8096 18.4367C18.3306 16.9437 19.168 14.9658 19.168 12.8665V9.84976C19.168 9.46443 18.9043 9.12951 18.5291 9.0396L18.1856 8.95701C18.1774 8.91334 18.1735 8.86835 18.1646 8.82485C17.4363 5.26668 14.4247 2.53184 10.7687 2.20526C10.7667 2.20509 10.7646 2.20509 10.7626 2.20493C10.7584 2.20451 10.7542 2.20368 10.75 2.20326C10.7475 2.20301 10.7452 2.20409 10.7427 2.20384C10.2396 2.14901 9.71822 2.15043 9.25264 2.20326C4.92889 2.58984 1.66797 6.15634 1.66797 10.5C1.66797 10.7714 1.68072 11.0399 1.70564 11.3048C2.07972 15.277 5.19797 18.4342 9.23388 18.7947ZM3.45114 9.24684C3.4653 9.17118 3.48622 9.09801 3.50289 9.02326C3.53105 8.89734 3.55755 8.77076 3.59264 8.64759C3.6138 8.57284 3.64122 8.50109 3.66497 8.42751C3.7038 8.30734 3.74139 8.18651 3.78672 8.06934C3.81397 7.99901 3.84655 7.93168 3.87605 7.86268C3.9258 7.74626 3.97464 7.62934 4.0308 7.51651C4.06314 7.45134 4.10014 7.38918 4.13455 7.32535C4.19555 7.21209 4.25639 7.09851 4.32372 6.98934C4.35897 6.93209 4.39822 6.87768 4.43514 6.82151C4.50864 6.71009 4.58247 6.59901 4.66239 6.49234C4.69955 6.44268 4.74005 6.39568 4.77864 6.3471C4.86489 6.23876 4.95205 6.13109 5.04497 6.02834C5.08289 5.98626 5.12347 5.94659 5.16255 5.90551C5.2618 5.80118 5.36272 5.69818 5.46872 5.60051C5.50705 5.56501 5.54739 5.53176 5.58664 5.49718C5.69805 5.39918 5.81139 5.30343 5.92939 5.21301C5.96897 5.18259 6.01022 5.15418 6.05064 5.12459C6.17272 5.03534 6.29705 4.94884 6.42547 4.86793C6.46664 4.84201 6.50897 4.81776 6.5508 4.79268C6.68189 4.71409 6.81514 4.63884 6.95214 4.56909C6.99714 4.54618 7.04305 4.52501 7.08855 4.50301C7.22464 4.43768 7.36289 4.37593 7.50422 4.31943C7.55647 4.29859 7.60963 4.27934 7.66255 4.25976C7.79888 4.20934 7.93714 4.16268 8.0778 4.12084C8.14172 4.10184 8.2063 4.08459 8.27105 4.06743C8.29689 4.06059 8.32364 4.05568 8.34964 4.04909C6.99772 5.62634 6.17122 7.58301 5.99647 9.66668H3.39164C3.40889 9.52593 3.4253 9.38468 3.45114 9.24684ZM12.2096 4.23026C12.3519 4.28059 12.496 4.32676 12.6337 4.38634C12.7911 4.45443 12.9405 4.53634 13.0913 4.61593C13.223 4.68534 13.3576 4.74993 13.4839 4.82776C13.63 4.91776 13.766 5.02151 13.9044 5.12218C14.0227 5.20818 14.1451 5.28884 14.2574 5.38226C14.3922 5.49443 14.5145 5.62018 14.6401 5.74251C14.7413 5.84109 14.8483 5.93384 14.9431 6.03859C15.067 6.17543 15.1754 6.32543 15.2877 6.47218C15.3682 6.57743 15.4564 6.67643 15.5306 6.78643C15.6465 6.95801 15.7435 7.14234 15.8432 7.32476C15.8966 7.4226 15.9599 7.51409 16.0086 7.61476C16.148 7.90343 16.2682 8.20285 16.3653 8.51276L14.3666 8.0241C14.2372 7.99234 14.1013 7.99193 13.972 8.02368L13.7476 8.07843C13.38 6.5971 12.6639 5.22293 11.6712 4.05943C11.6868 4.06343 11.7031 4.06526 11.7186 4.06943C11.886 4.11418 12.0475 4.17293 12.2096 4.23026ZM8.02972 16.8658C7.92605 16.8343 7.82422 16.7992 7.72297 16.7629C7.6323 16.7304 7.54188 16.6975 7.45314 16.6613C7.35355 16.6207 7.25605 16.5763 7.15905 16.531C7.07322 16.491 6.98747 16.4509 6.90389 16.4075C6.8088 16.3582 6.71639 16.305 6.6243 16.2513C6.54347 16.2043 6.46255 16.1575 6.38405 16.1072C6.29414 16.0495 6.20714 15.9879 6.12039 15.9262C6.04514 15.8726 5.96947 15.8197 5.89672 15.7632C5.81222 15.6976 5.7313 15.6278 5.65022 15.5583C5.58072 15.4988 5.51039 15.4399 5.44347 15.3775C5.36505 15.3044 5.2908 15.2273 5.21614 15.1505C5.15289 15.0854 5.08847 15.0215 5.02797 14.954C4.95572 14.8733 4.88814 14.7886 4.81989 14.7043C4.7633 14.6346 4.7053 14.5662 4.65172 14.4942C4.5868 14.4071 4.52722 14.3159 4.46655 14.2256C4.41647 14.1508 4.3643 14.0776 4.31714 14.0008C4.25972 13.9072 4.2083 13.8097 4.15547 13.7131C4.11264 13.6348 4.06739 13.5579 4.02772 13.4778C3.9778 13.3768 3.93447 13.2723 3.88955 13.1685C3.85464 13.088 3.81689 13.0091 3.78514 12.9269C3.74289 12.8175 3.70822 12.7046 3.67164 12.5925C3.6453 12.512 3.61547 12.4332 3.59222 12.3513C3.55847 12.2327 3.53305 12.1106 3.50572 11.9893C3.48789 11.9102 3.46589 11.8327 3.45089 11.7524C3.42597 11.6195 3.41055 11.4833 3.39355 11.3477C3.39297 11.3428 3.3923 11.3381 3.39164 11.3333H5.99647C6.17122 13.4138 6.99655 15.3705 8.34747 16.9522C8.33605 16.9493 8.3243 16.947 8.31289 16.944C8.21772 16.9195 8.12305 16.8943 8.02972 16.8658ZM10.0038 4.70201C11.0407 5.75634 11.7758 7.05701 12.1286 8.47168L9.80355 9.04051C9.49205 9.11651 9.26814 9.36468 9.19905 9.66676H7.66322C7.85205 7.7956 8.6748 6.05143 10.0038 4.70201ZM9.16797 11.3333V12.0332C9.16797 12.4546 9.18564 12.8583 9.2208 13.2461C9.22214 13.2609 9.22547 13.2742 9.22688 13.289C9.22763 13.2972 9.22947 13.3043 9.23022 13.3124C9.24205 13.4338 9.26472 13.5463 9.28005 13.6645C9.31663 13.9482 9.35739 14.2285 9.4143 14.4943C9.4408 14.6173 9.47622 14.7341 9.50722 14.8538C9.57155 15.1035 9.64172 15.3491 9.72538 15.5834C9.76655 15.6985 9.81389 15.8101 9.8598 15.9219C9.9118 16.0485 9.9538 16.1827 10.0119 16.3048C10.0093 16.3074 10.0065 16.3095 10.0039 16.3122C8.67564 14.9631 7.8498 13.2094 7.6603 11.3333H9.16797ZM17.5013 12.8665C17.5013 14.5144 16.8413 16.07 15.6466 17.2428L15.3919 17.4889C14.7189 18.1518 13.6202 18.1534 12.9358 17.4816L12.7511 17.305L12.7295 17.3231C12.7067 17.2819 12.6763 17.2454 12.6465 17.2082L12.651 17.2029C12.6322 17.1793 12.6119 17.1569 12.5907 17.1358C12.2693 16.8139 12.0072 16.4721 11.7907 16.0928C11.7646 16.0328 11.7306 15.9763 11.6906 15.9239C11.6889 15.9216 11.6883 15.9186 11.6866 15.9163C11.6841 15.9118 11.6816 15.9073 11.6792 15.9033C11.1113 14.8807 10.8346 13.6148 10.8346 12.0332V10.504L14.1671 9.69101L17.2327 10.4454C17.2612 10.4532 17.293 10.4597 17.3255 10.4642L17.5013 10.5065V12.8665Z" fill="white"/>
</svg>
