<svg width="28" height="27" viewBox="0 0 28 27" fill="none" xmlns="http://www.w3.org/2000/svg">
<path d="M14 13.5C14 12.8787 14.5037 12.375 15.125 12.375H21.875C22.4963 12.375 23 12.8787 23 13.5V21.375C23 21.9963 22.4963 22.5 21.875 22.5H15.125C14.5037 22.5 14 21.9963 14 21.375V13.5Z" stroke="white" stroke-width="2.5" stroke-linecap="round"/>
<path d="M5 5.625C5 5.00368 5.50368 4.5 6.125 4.5H9.5C10.1213 4.5 10.625 5.00368 10.625 5.625V21.375C10.625 21.9963 10.1213 22.5 9.5 22.5H6.125C5.50368 22.5 5 21.9963 5 21.375V5.625Z" stroke="white" stroke-width="2.5" stroke-linecap="round"/>
<path d="M14 5.625C14 5.00368 14.5037 4.5 15.125 4.5H21.875C22.4963 4.5 23 5.00368 23 5.625V7.875C23 8.49632 22.4963 9 21.875 9H15.125C14.5037 9 14 8.49632 14 7.875V5.625Z" stroke="white" stroke-width="2.5" stroke-linecap="round"/>
</svg>
