<svg width="25" height="25" viewBox="0 0 25 25" fill="none" xmlns="http://www.w3.org/2000/svg">
<path d="M20.9075 15.8012C19.8538 17.505 16.4888 18.7525 12.5 18.7525C8.51125 18.7525 5.14625 17.505 4.09125 15.8012C3.86875 15.4387 3.75 15.6325 3.75 15.81V18.3125C3.75 20.7375 7.6675 23.25 12.5 23.25C17.3325 23.25 21.25 20.7375 21.25 18.3137V15.8113C21.25 15.6325 21.13 15.4387 20.9075 15.8012ZM20.9212 9.40625C19.8837 10.9125 16.5063 12.0187 12.5 12.0187C8.49375 12.0187 5.115 10.9125 4.0775 9.40625C3.86375 9.09625 3.75 9.265 3.75 9.40375V12.35C3.75 14.5525 7.6675 16.3363 12.5 16.3363C17.3325 16.3363 21.25 14.5513 21.25 12.35V9.40375C21.25 9.265 21.135 9.09625 20.9212 9.40625ZM12.5 1.25C7.6675 1.25 3.75 2.725 3.75 4.54125V6.11625C3.75 8.0425 7.6675 9.605 12.5 9.605C17.3325 9.605 21.25 8.0425 21.25 6.11625V4.54125C21.25 2.725 17.3325 1.25 12.5 1.25Z" fill="white"/>
</svg>
