<svg width="24" height="25" viewBox="0 0 24 25" fill="none" xmlns="http://www.w3.org/2000/svg">
<path fill-rule="evenodd" clip-rule="evenodd" d="M4.6138 9.04479L4.1875 10.75H2C1.58579 10.75 1.25 11.0858 1.25 11.5C1.25 11.9142 1.58579 12.25 2 12.25H22C22.4142 12.25 22.75 11.9142 22.75 11.5C22.75 11.0858 22.4142 10.75 22 10.75H19.8125L19.3862 9.04479C18.8405 6.86211 18.5677 5.77077 17.7539 5.13538C16.9401 4.5 15.8152 4.5 13.5653 4.5H10.4347C8.1848 4.5 7.05988 4.5 6.24609 5.13538C5.43231 5.77077 5.15947 6.86211 4.6138 9.04479ZM6.5 21.5C8.12316 21.5 9.48826 20.3951 9.88417 18.8963L10.9938 18.3415C11.6272 18.0248 12.3728 18.0248 13.0062 18.3415L14.1158 18.8963C14.5117 20.3951 15.8768 21.5 17.5 21.5C19.433 21.5 21 19.933 21 18C21 16.067 19.433 14.5 17.5 14.5C15.8399 14.5 14.4498 15.6558 14.0903 17.2065L13.6771 16.9999C12.6213 16.472 11.3787 16.472 10.3229 16.9999L9.90967 17.2065C9.55023 15.6558 8.16009 14.5 6.5 14.5C4.567 14.5 3 16.067 3 18C3 19.933 4.567 21.5 6.5 21.5Z" fill="white"/>
</svg>
